<?xml version="1.0" encoding="UTF-8"?>
<svg width="170px" height="143px" viewBox="0 0 170 143" version="1.1" xmlns="http://www.w3.org/2000/svg" xmlns:xlink="http://www.w3.org/1999/xlink">
    <!-- Generator: Sketch 61 (89581) - https://sketch.com -->
    <title>snow</title>
    <desc>Created with Sketch.</desc>
    <g id="页面-1" stroke="none" stroke-width="1" fill="none" fill-rule="evenodd">
        <g id="10.2”-iPad备份" transform="translate(-345.000000, -416.000000)">
            <g id="snow" transform="translate(345.000000, 417.000000)" fill="#FFFFFF">
                <circle id="椭圆形" stroke="#E0E0E0" cx="112.5" cy="49.5" r="31.5"></circle>
                <path d="M70.5568182,77 C91.653468,77 113,59.9731706 113,38.9695122 C113,17.9658538 91.653468,0 70.5568182,0 C49.4601683,0 30,17.9658538 30,38.9695122 C30,59.9731706 49.4601683,77 70.5568182,77 Z" id="椭圆形" stroke="#E0E0E0"></path>
                <rect id="矩形" x="0" y="40" width="170" height="63" rx="31.5"></rect>
                <g id="1" transform="translate(24.000000, 114.000000)">
                    <rect id="矩形" x="0.196152423" y="9" width="26" height="3" rx="1.5"></rect>
                    <path d="M4.85958544,11.2010562 L28.5829779,11.2096977 C29.3106856,11.2099627 29.9005431,11.7998201 29.9008083,12.5275279 C29.9010732,13.2545504 29.3119198,13.8441334 28.5848972,13.8443983 C28.5845775,13.8443984 28.5842578,13.8443984 28.583938,13.8443983 L4.86054556,13.8357569 C4.13283783,13.8354918 3.54298035,13.2456344 3.54271516,12.5179267 C3.54245023,11.7909041 4.13160368,11.2013211 4.85862622,11.2010562 C4.85894596,11.2010561 4.8592657,11.2010561 4.85958544,11.2010562 Z" id="矩形" transform="translate(16.721762, 12.522727) rotate(60.000000) translate(-16.721762, -12.522727) "></path>
                    <path d="M4.86054556,15.1642431 L28.583938,15.1556017 C29.3109606,15.1553368 29.9005435,15.7444904 29.9008083,16.4715129 C29.9008084,16.4718327 29.9008084,16.4721524 29.9008083,16.4724721 C29.9005431,17.2001799 29.3106856,17.7900373 28.5829779,17.7903023 L4.85958544,17.7989438 C4.13256289,17.7992086 3.54297999,17.2100551 3.54271516,16.4830325 C3.54271505,16.4827128 3.54271505,16.4823931 3.54271516,16.4820733 C3.54298035,15.7543656 4.13283783,15.1645082 4.86054556,15.1642431 Z" id="矩形" transform="translate(16.721762, 16.477273) rotate(120.000000) translate(-16.721762, -16.477273) "></path>
                    <rect id="矩形" transform="translate(13.196152, 18.500000) rotate(180.000000) translate(-13.196152, -18.500000) " x="0.196152423" y="17" width="26" height="3" rx="1.5"></rect>
                    <path d="M-1.98412751,15.1556017 L21.739265,15.1642431 C22.4669727,15.1645082 23.0568302,15.7543656 23.0570953,16.4820733 C23.0573603,17.2090959 22.4682068,17.7986789 21.7411843,17.7989438 C21.7408645,17.7989439 21.7405448,17.7989439 21.7402251,17.7989438 L-1.98316739,17.7903023 C-2.71087512,17.7900373 -3.3007326,17.2001799 -3.30099778,16.4724721 C-3.30126272,15.7454496 -2.71210927,15.1558666 -1.98508672,15.1556017 C-1.98476699,15.1556016 -1.98444725,15.1556016 -1.98412751,15.1556017 Z" id="矩形" transform="translate(9.878049, 16.477273) rotate(240.000000) translate(-9.878049, -16.477273) "></path>
                    <path d="M-1.98316739,11.2096977 L21.7402251,11.2010562 C22.4672476,11.2007914 23.0568305,11.7899449 23.0570953,12.5169675 C23.0570955,12.5172872 23.0570955,12.5176069 23.0570953,12.5179267 C23.0568302,13.2456344 22.4669727,13.8354918 21.739265,13.8357569 L-1.98412751,13.8443983 C-2.71115005,13.8446632 -3.30073296,13.2555096 -3.30099778,12.5284871 C-3.3009979,12.5281673 -3.3009979,12.5278476 -3.30099778,12.5275279 C-3.3007326,11.7998201 -2.71087512,11.2099627 -1.98316739,11.2096977 Z" id="矩形" transform="translate(9.878049, 12.522727) rotate(300.000000) translate(-9.878049, -12.522727) "></path>
                </g>
                <g id="1" transform="translate(68.000000, 114.000000)">
                    <rect id="矩形" x="0.196152423" y="9" width="26" height="3" rx="1.5"></rect>
                    <path d="M4.85958544,11.2010562 L28.5829779,11.2096977 C29.3106856,11.2099627 29.9005431,11.7998201 29.9008083,12.5275279 C29.9010732,13.2545504 29.3119198,13.8441334 28.5848972,13.8443983 C28.5845775,13.8443984 28.5842578,13.8443984 28.583938,13.8443983 L4.86054556,13.8357569 C4.13283783,13.8354918 3.54298035,13.2456344 3.54271516,12.5179267 C3.54245023,11.7909041 4.13160368,11.2013211 4.85862622,11.2010562 C4.85894596,11.2010561 4.8592657,11.2010561 4.85958544,11.2010562 Z" id="矩形" transform="translate(16.721762, 12.522727) rotate(60.000000) translate(-16.721762, -12.522727) "></path>
                    <path d="M4.86054556,15.1642431 L28.583938,15.1556017 C29.3109606,15.1553368 29.9005435,15.7444904 29.9008083,16.4715129 C29.9008084,16.4718327 29.9008084,16.4721524 29.9008083,16.4724721 C29.9005431,17.2001799 29.3106856,17.7900373 28.5829779,17.7903023 L4.85958544,17.7989438 C4.13256289,17.7992086 3.54297999,17.2100551 3.54271516,16.4830325 C3.54271505,16.4827128 3.54271505,16.4823931 3.54271516,16.4820733 C3.54298035,15.7543656 4.13283783,15.1645082 4.86054556,15.1642431 Z" id="矩形" transform="translate(16.721762, 16.477273) rotate(120.000000) translate(-16.721762, -16.477273) "></path>
                    <rect id="矩形" transform="translate(13.196152, 18.500000) rotate(180.000000) translate(-13.196152, -18.500000) " x="0.196152423" y="17" width="26" height="3" rx="1.5"></rect>
                    <path d="M-1.98412751,15.1556017 L21.739265,15.1642431 C22.4669727,15.1645082 23.0568302,15.7543656 23.0570953,16.4820733 C23.0573603,17.2090959 22.4682068,17.7986789 21.7411843,17.7989438 C21.7408645,17.7989439 21.7405448,17.7989439 21.7402251,17.7989438 L-1.98316739,17.7903023 C-2.71087512,17.7900373 -3.3007326,17.2001799 -3.30099778,16.4724721 C-3.30126272,15.7454496 -2.71210927,15.1558666 -1.98508672,15.1556017 C-1.98476699,15.1556016 -1.98444725,15.1556016 -1.98412751,15.1556017 Z" id="矩形" transform="translate(9.878049, 16.477273) rotate(240.000000) translate(-9.878049, -16.477273) "></path>
                    <path d="M-1.98316739,11.2096977 L21.7402251,11.2010562 C22.4672476,11.2007914 23.0568305,11.7899449 23.0570953,12.5169675 C23.0570955,12.5172872 23.0570955,12.5176069 23.0570953,12.5179267 C23.0568302,13.2456344 22.4669727,13.8354918 21.739265,13.8357569 L-1.98412751,13.8443983 C-2.71115005,13.8446632 -3.30073296,13.2555096 -3.30099778,12.5284871 C-3.3009979,12.5281673 -3.3009979,12.5278476 -3.30099778,12.5275279 C-3.3007326,11.7998201 -2.71087512,11.2099627 -1.98316739,11.2096977 Z" id="矩形" transform="translate(9.878049, 12.522727) rotate(300.000000) translate(-9.878049, -12.522727) "></path>
                </g>
                <g id="1" transform="translate(113.000000, 114.000000)">
                    <rect id="矩形" x="0.196152423" y="9" width="26" height="3" rx="1.5"></rect>
                    <path d="M4.85958544,11.2010562 L28.5829779,11.2096977 C29.3106856,11.2099627 29.9005431,11.7998201 29.9008083,12.5275279 C29.9010732,13.2545504 29.3119198,13.8441334 28.5848972,13.8443983 C28.5845775,13.8443984 28.5842578,13.8443984 28.583938,13.8443983 L4.86054556,13.8357569 C4.13283783,13.8354918 3.54298035,13.2456344 3.54271516,12.5179267 C3.54245023,11.7909041 4.13160368,11.2013211 4.85862622,11.2010562 C4.85894596,11.2010561 4.8592657,11.2010561 4.85958544,11.2010562 Z" id="矩形" transform="translate(16.721762, 12.522727) rotate(60.000000) translate(-16.721762, -12.522727) "></path>
                    <path d="M4.86054556,15.1642431 L28.583938,15.1556017 C29.3109606,15.1553368 29.9005435,15.7444904 29.9008083,16.4715129 C29.9008084,16.4718327 29.9008084,16.4721524 29.9008083,16.4724721 C29.9005431,17.2001799 29.3106856,17.7900373 28.5829779,17.7903023 L4.85958544,17.7989438 C4.13256289,17.7992086 3.54297999,17.2100551 3.54271516,16.4830325 C3.54271505,16.4827128 3.54271505,16.4823931 3.54271516,16.4820733 C3.54298035,15.7543656 4.13283783,15.1645082 4.86054556,15.1642431 Z" id="矩形" transform="translate(16.721762, 16.477273) rotate(120.000000) translate(-16.721762, -16.477273) "></path>
                    <rect id="矩形" transform="translate(13.196152, 18.500000) rotate(180.000000) translate(-13.196152, -18.500000) " x="0.196152423" y="17" width="26" height="3" rx="1.5"></rect>
                    <path d="M-1.98412751,15.1556017 L21.739265,15.1642431 C22.4669727,15.1645082 23.0568302,15.7543656 23.0570953,16.4820733 C23.0573603,17.2090959 22.4682068,17.7986789 21.7411843,17.7989438 C21.7408645,17.7989439 21.7405448,17.7989439 21.7402251,17.7989438 L-1.98316739,17.7903023 C-2.71087512,17.7900373 -3.3007326,17.2001799 -3.30099778,16.4724721 C-3.30126272,15.7454496 -2.71210927,15.1558666 -1.98508672,15.1556017 C-1.98476699,15.1556016 -1.98444725,15.1556016 -1.98412751,15.1556017 Z" id="矩形" transform="translate(9.878049, 16.477273) rotate(240.000000) translate(-9.878049, -16.477273) "></path>
                    <path d="M-1.98316739,11.2096977 L21.7402251,11.2010562 C22.4672476,11.2007914 23.0568305,11.7899449 23.0570953,12.5169675 C23.0570955,12.5172872 23.0570955,12.5176069 23.0570953,12.5179267 C23.0568302,13.2456344 22.4669727,13.8354918 21.739265,13.8357569 L-1.98412751,13.8443983 C-2.71115005,13.8446632 -3.30073296,13.2555096 -3.30099778,12.5284871 C-3.3009979,12.5281673 -3.3009979,12.5278476 -3.30099778,12.5275279 C-3.3007326,11.7998201 -2.71087512,11.2099627 -1.98316739,11.2096977 Z" id="矩形" transform="translate(9.878049, 12.522727) rotate(300.000000) translate(-9.878049, -12.522727) "></path>
                </g>
            </g>
        </g>
    </g>
</svg>